<?xml version="1.0" encoding="UTF-8"?>
<svg xmlns="http://www.w3.org/2000/svg" xmlns:xlink="http://www.w3.org/1999/xlink" width="200px" height="50px" viewBox="0 0 204 50" version="1.1">
<defs>
<clipPath id="clip1">
  <path d="M 20 0 L 23 0 L 23 19.785156 L 20 19.785156 Z M 20 0 "/>
</clipPath>
<clipPath id="clip2">
  <path d="M 27.289062 0.0507812 L 203.25 0.0507812 L 203.25 19.738281 L 27.289062 19.738281 Z M 27.289062 0.0507812 "/>
</clipPath>
<clipPath id="clip3">
  <path d="M 0.5 0.0507812 L 16.21875 0.0507812 L 16.21875 19.738281 L 0.5 19.738281 Z M 0.5 0.0507812 "/>
</clipPath>
</defs>
<g id="surface1">
<g clip-path="url(#clip1)" clip-rule="nonzero">
<path style=" stroke:none;fill-rule:nonzero;fill:rgb(17%,69%,74%);fill-opacity:1;" d="M 21.753906 0 C 22.246094 0 22.640625 0.90625 22.640625 2.027344 L 22.640625 17.757812 C 22.640625 18.878906 22.246094 19.785156 21.753906 19.785156 C 21.265625 19.785156 20.867188 18.878906 20.867188 17.757812 L 20.867188 2.027344 C 20.867188 0.90625 21.265625 0 21.753906 0 Z M 21.753906 0 "/>
</g>
<g clip-path="url(#clip2)" clip-rule="nonzero">
<path style=" stroke:none;fill-rule:nonzero;fill:rgb(17%,69%,74%);fill-opacity:1;" d="M 35.898438 13.460938 L 35.898438 0.324219 L 40.496094 0.324219 L 40.496094 13.460938 C 40.496094 14.683594 40.214844 15.769531 39.652344 16.726562 C 39.082031 17.679688 38.292969 18.421875 37.28125 18.945312 C 36.269531 19.472656 35.140625 19.738281 33.894531 19.738281 C 31.808594 19.738281 30.1875 19.210938 29.03125 18.160156 C 27.875 17.105469 27.300781 15.617188 27.300781 13.6875 L 31.925781 13.6875 C 31.925781 14.5625 32.074219 15.199219 32.375 15.59375 C 32.679688 15.988281 33.1875 16.1875 33.894531 16.1875 C 34.539062 16.1875 35.03125 15.949219 35.375 15.472656 C 35.722656 14.992188 35.898438 14.324219 35.898438 13.460938 Z M 59.609375 9.410156 L 59.609375 10.292969 C 59.609375 12.160156 59.265625 13.8125 58.570312 15.25 C 57.878906 16.691406 56.894531 17.796875 55.621094 18.574219 C 54.34375 19.347656 52.890625 19.738281 51.257812 19.738281 C 49.628906 19.738281 48.183594 19.363281 46.925781 18.613281 C 45.660156 17.859375 44.679688 16.789062 43.972656 15.394531 C 43.265625 14.003906 42.894531 12.402344 42.859375 10.597656 L 42.859375 9.519531 C 42.859375 7.640625 43.203125 5.984375 43.894531 4.550781 C 44.582031 3.121094 45.566406 2.011719 46.851562 1.234375 C 48.132812 0.453125 49.597656 0.0585938 51.234375 0.0585938 C 52.855469 0.0585938 54.300781 0.445312 55.574219 1.21875 C 56.84375 1.988281 57.832031 3.089844 58.539062 4.515625 C 59.242188 5.941406 59.601562 7.574219 59.609375 9.410156 Z M 54.914062 10.375 L 54.914062 9.492188 C 54.914062 7.589844 54.597656 6.144531 53.960938 5.160156 C 53.328125 4.171875 52.417969 3.679688 51.234375 3.679688 C 48.921875 3.679688 47.699219 5.417969 47.566406 8.886719 L 47.554688 10.292969 C 47.554688 12.167969 47.867188 13.609375 48.488281 14.621094 C 49.109375 15.628906 50.035156 16.132812 51.257812 16.132812 C 52.425781 16.132812 53.324219 15.636719 53.957031 14.648438 C 54.589844 13.65625 54.910156 12.230469 54.914062 10.375 Z M 69.753906 19.472656 L 61.984375 19.472656 L 61.984375 0.324219 L 68.859375 0.324219 C 71.324219 0.324219 73.199219 0.777344 74.484375 1.679688 C 75.765625 2.582031 76.40625 3.894531 76.40625 5.613281 C 76.40625 6.605469 76.179688 7.449219 75.726562 8.152344 C 75.269531 8.851562 74.597656 9.367188 73.710938 9.703125 C 74.710938 9.964844 75.476562 10.453125 76.011719 11.171875 C 76.546875 11.894531 76.8125 12.773438 76.8125 13.804688 C 76.8125 15.679688 76.21875 17.089844 75.03125 18.035156 C 73.847656 18.976562 72.089844 19.457031 69.753906 19.472656 Z M 69.835938 11.335938 L 66.601562 11.335938 L 66.601562 15.921875 L 69.625 15.921875 C 70.457031 15.921875 71.097656 15.734375 71.542969 15.351562 C 71.992188 14.96875 72.214844 14.429688 72.214844 13.742188 C 72.214844 12.144531 71.421875 11.339844 69.835938 11.335938 Z M 66.601562 3.890625 L 66.601562 8.308594 L 69.007812 8.308594 C 70.015625 8.300781 70.734375 8.117188 71.160156 7.757812 C 71.589844 7.398438 71.804688 6.867188 71.804688 6.164062 C 71.804688 5.359375 71.574219 4.777344 71.113281 4.421875 C 70.644531 4.066406 69.894531 3.890625 68.859375 3.890625 Z M 100.289062 0.324219 L 100.289062 3.890625 L 94.542969 3.890625 L 94.542969 19.472656 L 89.929688 19.472656 L 89.929688 3.890625 L 84.292969 3.890625 L 84.292969 0.324219 Z M 112.722656 19.472656 L 109.347656 12.714844 L 106.847656 12.714844 L 106.847656 19.472656 L 102.234375 19.472656 L 102.234375 0.324219 L 109.765625 0.324219 C 112.035156 0.324219 113.808594 0.828125 115.089844 1.835938 C 116.371094 2.847656 117.007812 4.273438 117.007812 6.113281 C 117.007812 7.445312 116.738281 8.550781 116.199219 9.425781 C 115.664062 10.304688 114.820312 11.011719 113.671875 11.554688 L 117.664062 19.273438 L 117.664062 19.472656 Z M 106.847656 3.890625 L 106.847656 9.148438 L 109.765625 9.148438 C 110.640625 9.148438 111.300781 8.917969 111.742188 8.457031 C 112.1875 7.996094 112.410156 7.355469 112.410156 6.535156 C 112.410156 5.707031 112.1875 5.0625 111.738281 4.59375 C 111.292969 4.125 110.636719 3.890625 109.765625 3.890625 Z M 131.785156 19.472656 L 130.667969 15.898438 L 124.34375 15.898438 L 123.238281 19.472656 L 118.3125 19.472656 L 125.328125 0.324219 L 129.667969 0.324219 L 136.742188 19.472656 Z M 127.496094 5.6875 L 125.445312 12.332031 L 129.566406 12.332031 Z M 148.753906 12.988281 L 153.34375 12.988281 C 153.28125 14.320312 152.921875 15.496094 152.265625 16.519531 C 151.605469 17.542969 150.683594 18.332031 149.5 18.898438 C 148.308594 19.457031 146.953125 19.738281 145.425781 19.738281 C 142.910156 19.738281 140.929688 18.917969 139.488281 17.277344 C 138.042969 15.636719 137.320312 13.324219 137.320312 10.332031 L 137.320312 9.382812 C 137.320312 7.507812 137.644531 5.867188 138.296875 4.460938 C 138.949219 3.054688 139.886719 1.96875 141.113281 1.203125 C 142.34375 0.433594 143.761719 0.0507812 145.375 0.0507812 C 147.695312 0.0507812 149.5625 0.660156 150.972656 1.886719 C 152.382812 3.105469 153.1875 4.792969 153.378906 6.9375 L 148.78125 6.9375 C 148.746094 5.773438 148.453125 4.9375 147.898438 4.429688 C 147.347656 3.917969 146.503906 3.664062 145.375 3.664062 C 144.226562 3.664062 143.386719 4.09375 142.855469 4.957031 C 142.320312 5.816406 142.039062 7.1875 142.007812 9.070312 L 142.007812 10.421875 C 142.007812 12.46875 142.265625 13.925781 142.777344 14.804688 C 143.292969 15.679688 144.175781 16.117188 145.425781 16.117188 C 146.488281 16.117188 147.296875 15.867188 147.859375 15.367188 C 148.421875 14.871094 148.71875 14.074219 148.753906 12.988281 Z M 166.105469 19.472656 L 162.027344 12.347656 L 160.136719 14.421875 L 160.136719 19.472656 L 155.523438 19.472656 L 155.523438 0.324219 L 160.136719 0.324219 L 160.136719 8.769531 L 161.742188 6.335938 L 165.867188 0.324219 L 171.574219 0.324219 L 165.109375 8.796875 L 171.574219 19.472656 Z M 184.609375 7.925781 L 184.609375 11.359375 L 177.355469 11.359375 L 177.355469 15.921875 L 185.929688 15.921875 L 185.929688 19.472656 L 172.742188 19.472656 L 172.742188 0.324219 L 185.949219 0.324219 L 185.949219 3.890625 L 177.355469 3.890625 L 177.355469 7.925781 Z M 198.296875 19.472656 L 194.914062 12.714844 L 192.417969 12.714844 L 192.417969 19.472656 L 187.804688 19.472656 L 187.804688 0.324219 L 195.335938 0.324219 C 197.609375 0.324219 199.382812 0.828125 200.660156 1.835938 C 201.941406 2.847656 202.582031 4.273438 202.582031 6.113281 C 202.582031 7.445312 202.3125 8.550781 201.769531 9.425781 C 201.230469 10.304688 200.386719 11.011719 199.238281 11.554688 L 203.238281 19.273438 L 203.238281 19.472656 Z M 192.417969 3.890625 L 192.417969 9.148438 L 195.335938 9.148438 C 196.210938 9.148438 196.871094 8.917969 197.316406 8.457031 C 197.757812 7.996094 197.980469 7.355469 197.980469 6.535156 C 197.980469 5.707031 197.757812 5.0625 197.3125 4.59375 C 196.863281 4.125 196.203125 3.890625 195.335938 3.890625 Z M 192.417969 3.890625 "/>
</g>
<g clip-path="url(#clip3)" clip-rule="nonzero">
<path style=" stroke:none;fill-rule:nonzero;fill:rgb(17%,69%,74%);fill-opacity:1;" d="M 16.199219 5.675781 L 16.179688 5.59375 C 16.140625 5.46875 16.078125 5.367188 15.996094 5.285156 L 11.070312 0.296875 C 11.007812 0.234375 10.945312 0.191406 10.863281 0.152344 L 10.597656 0.0703125 L 2.800781 0.0507812 C 1.527344 0.0507812 0.5 1.074219 0.5 2.347656 L 0.5 17.4375 C 0.5 18.710938 1.527344 19.738281 2.800781 19.738281 L 13.921875 19.738281 C 15.195312 19.738281 16.222656 18.710938 16.222656 17.4375 L 16.222656 5.878906 Z M 11.089844 2.699219 L 13.675781 5.304688 L 11.746094 5.304688 C 11.398438 5.304688 11.109375 5.015625 11.109375 4.667969 L 11.109375 2.699219 Z M 3.148438 9.636719 L 3.148438 6.207031 C 3.148438 6.023438 3.292969 5.878906 3.476562 5.878906 L 4.953125 5.878906 L 4.953125 5.203125 C 4.953125 5.078125 5.058594 4.996094 5.160156 4.996094 L 7.007812 4.996094 C 7.128906 4.996094 7.210938 5.097656 7.210938 5.203125 L 7.210938 5.878906 L 8.691406 5.878906 C 8.855469 5.878906 8.996094 6.023438 8.996094 6.207031 L 8.996094 9.617188 C 8.996094 9.800781 8.855469 9.945312 8.667969 9.945312 L 3.476562 9.945312 C 3.292969 9.945312 3.148438 9.800781 3.148438 9.636719 Z M 14.003906 17.152344 L 10.886719 17.152344 L 10.886719 16.390625 L 14.003906 16.390625 Z M 14.003906 15.160156 L 8.195312 15.160156 L 8.195312 14.398438 L 14.003906 14.398438 Z M 14.003906 13.230469 L 8.195312 13.230469 L 8.195312 12.46875 L 14.003906 12.46875 Z M 14.003906 13.230469 "/>
</g>
<path style=" stroke:none;fill-rule:nonzero;fill:rgb(17%,69%,74%);fill-opacity:1;" d="M 5.363281 5.429688 L 6.800781 5.429688 L 6.800781 5.898438 L 5.363281 5.898438 Z M 5.363281 5.429688 "/>
</g>
</svg>
